<svg xmlns="http://www.w3.org/2000/svg" xmlns:xlink="http://www.w3.org/1999/xlink" width="500" zoomAndPan="magnify" viewBox="0 0 375 374.999991" height="500" preserveAspectRatio="xMidYMid meet" version="1.0"><defs><g/><clipPath id="id1"><path d="M 1.273438 133.871094 L 91.273438 133.871094 L 91.273438 223.871094 L 1.273438 223.871094 Z M 1.273438 133.871094 " clip-rule="nonzero"/></clipPath><clipPath id="id2"><path d="M 10.617188 133.871094 L 100.617188 133.871094 L 100.617188 223.871094 L 10.617188 223.871094 Z M 10.617188 133.871094 " clip-rule="nonzero"/></clipPath></defs><rect x="-37.5" width="450" fill="#ffffff" y="-37.499999" height="449.999989" fill-opacity="1"/><rect x="-37.5" width="450" fill="#ffffff" y="-37.499999" height="449.999989" fill-opacity="1"/><rect x="-37.5" width="450" fill="#ffffff" y="-37.499999" height="449.999989" fill-opacity="1"/><rect x="-37.5" width="450" fill="#ffffff" y="-37.499999" height="449.999989" fill-opacity="1"/><g clip-path="url(#id1)"><path fill="#3a7d44" d="M 46.257812 223.871094 C 21.464844 223.871094 1.273438 203.679688 1.273438 178.859375 C 1.273438 154.035156 21.464844 133.871094 46.257812 133.871094 C 71.050781 133.871094 91.242188 154.066406 91.242188 178.859375 C 91.273438 203.679688 71.078125 223.871094 46.257812 223.871094 Z M 46.257812 134.632812 C 21.859375 134.632812 2.035156 154.460938 2.035156 178.859375 C 2.035156 203.253906 21.890625 223.109375 46.257812 223.109375 C 70.621094 223.109375 90.511719 203.253906 90.511719 178.859375 C 90.511719 154.460938 70.652344 134.632812 46.257812 134.632812 Z M 46.257812 134.632812 " fill-opacity="1" fill-rule="nonzero"/></g><g fill="#3a7d44" fill-opacity="1"><g transform="translate(113.04834, 196.166804)"><g><path d="M 25.796875 -27.875 C 25.796875 -28.300781 25.582031 -28.515625 25.15625 -28.515625 L 22.59375 -28.515625 C 22.175781 -28.515625 21.96875 -28.726562 21.96875 -29.15625 C 21.96875 -29.582031 22.175781 -29.796875 22.59375 -29.796875 L 30.6875 -29.796875 C 31.113281 -29.796875 31.328125 -29.582031 31.328125 -29.15625 C 31.328125 -28.726562 31.113281 -28.515625 30.6875 -28.515625 L 27.703125 -28.515625 C 27.273438 -28.515625 27.0625 -28.300781 27.0625 -27.875 L 27.0625 -1.921875 C 27.0625 -1.492188 27.273438 -1.28125 27.703125 -1.28125 L 30.6875 -1.28125 C 31.113281 -1.28125 31.328125 -1.066406 31.328125 -0.640625 C 31.328125 -0.210938 31.113281 0 30.6875 0 L 22.59375 0 C 22.175781 0 21.96875 -0.210938 21.96875 -0.640625 C 21.96875 -1.066406 22.175781 -1.28125 22.59375 -1.28125 L 25.15625 -1.28125 C 25.582031 -1.28125 25.796875 -1.492188 25.796875 -1.921875 L 25.796875 -13.828125 C 25.796875 -14.253906 25.582031 -14.46875 25.15625 -14.46875 L 8.125 -14.46875 C 7.695312 -14.46875 7.484375 -14.253906 7.484375 -13.828125 L 7.484375 -1.921875 C 7.484375 -1.492188 7.695312 -1.28125 8.125 -1.28125 L 10.6875 -1.28125 C 11.113281 -1.28125 11.328125 -1.066406 11.328125 -0.640625 C 11.328125 -0.210938 11.113281 0 10.6875 0 L 2.59375 0 C 2.164062 0 1.953125 -0.210938 1.953125 -0.640625 C 1.953125 -1.066406 2.164062 -1.28125 2.59375 -1.28125 L 5.578125 -1.28125 C 6.003906 -1.28125 6.21875 -1.492188 6.21875 -1.921875 L 6.21875 -27.875 C 6.21875 -28.300781 6.003906 -28.515625 5.578125 -28.515625 L 2.59375 -28.515625 C 2.164062 -28.515625 1.953125 -28.726562 1.953125 -29.15625 C 1.953125 -29.582031 2.164062 -29.796875 2.59375 -29.796875 L 10.6875 -29.796875 C 11.113281 -29.796875 11.328125 -29.582031 11.328125 -29.15625 C 11.328125 -28.726562 11.113281 -28.515625 10.6875 -28.515625 L 8.125 -28.515625 C 7.695312 -28.515625 7.484375 -28.300781 7.484375 -27.875 L 7.484375 -16.390625 C 7.484375 -15.960938 7.695312 -15.75 8.125 -15.75 L 25.15625 -15.75 C 25.582031 -15.75 25.796875 -15.960938 25.796875 -16.390625 Z M 25.796875 -27.875 "/></g></g></g><g fill="#3a7d44" fill-opacity="1"><g transform="translate(148.594071, 196.166804)"><g><path d="M 2.59375 0 C 2.164062 0 1.953125 -0.210938 1.953125 -0.640625 C 1.953125 -1.066406 2.164062 -1.28125 2.59375 -1.28125 L 5.578125 -1.28125 C 6.003906 -1.28125 6.21875 -1.492188 6.21875 -1.921875 L 6.21875 -27.875 C 6.21875 -28.300781 6.003906 -28.515625 5.578125 -28.515625 L 2.59375 -28.515625 C 2.164062 -28.515625 1.953125 -28.726562 1.953125 -29.15625 C 1.953125 -29.582031 2.164062 -29.796875 2.59375 -29.796875 L 22.8125 -29.796875 C 23.238281 -29.796875 23.453125 -29.582031 23.453125 -29.15625 L 23.453125 -23.203125 C 23.453125 -22.773438 23.238281 -22.5625 22.8125 -22.5625 C 22.382812 -22.5625 22.171875 -22.773438 22.171875 -23.203125 L 22.171875 -27.875 C 22.171875 -28.300781 21.957031 -28.515625 21.53125 -28.515625 L 8.125 -28.515625 C 7.695312 -28.515625 7.484375 -28.300781 7.484375 -27.875 L 7.484375 -16.390625 C 7.484375 -15.960938 7.695312 -15.75 8.125 -15.75 L 17.703125 -15.75 C 18.128906 -15.75 18.34375 -15.960938 18.34375 -16.390625 L 18.34375 -18.515625 C 18.34375 -18.941406 18.554688 -19.15625 18.984375 -19.15625 C 19.410156 -19.15625 19.625 -18.941406 19.625 -18.515625 L 19.625 -11.703125 C 19.625 -11.273438 19.410156 -11.0625 18.984375 -11.0625 C 18.554688 -11.0625 18.34375 -11.273438 18.34375 -11.703125 L 18.34375 -13.828125 C 18.34375 -14.253906 18.128906 -14.46875 17.703125 -14.46875 L 8.125 -14.46875 C 7.695312 -14.46875 7.484375 -14.253906 7.484375 -13.828125 L 7.484375 -1.921875 C 7.484375 -1.492188 7.695312 -1.28125 8.125 -1.28125 L 21.96875 -1.28125 C 22.382812 -1.28125 22.59375 -1.492188 22.59375 -1.921875 L 22.59375 -6.59375 C 22.59375 -7.019531 22.804688 -7.234375 23.234375 -7.234375 C 23.660156 -7.234375 23.875 -7.019531 23.875 -6.59375 L 23.875 -0.640625 C 23.875 -0.210938 23.660156 0 23.234375 0 Z M 2.59375 0 "/></g></g></g><g fill="#3a7d44" fill-opacity="1"><g transform="translate(176.988249, 196.166804)"><g><path d="M 2.59375 0 C 2.164062 0 1.953125 -0.210938 1.953125 -0.640625 C 1.953125 -1.066406 2.164062 -1.28125 2.59375 -1.28125 L 5.578125 -1.28125 C 6.003906 -1.28125 6.21875 -1.492188 6.21875 -1.921875 L 6.21875 -27.875 C 6.21875 -28.300781 6.003906 -28.515625 5.578125 -28.515625 L 2.59375 -28.515625 C 2.164062 -28.515625 1.953125 -28.726562 1.953125 -29.15625 C 1.953125 -29.582031 2.164062 -29.796875 2.59375 -29.796875 L 11.109375 -29.796875 C 11.535156 -29.796875 11.75 -29.582031 11.75 -29.15625 C 11.75 -28.726562 11.535156 -28.515625 11.109375 -28.515625 L 8.125 -28.515625 C 7.695312 -28.515625 7.484375 -28.300781 7.484375 -27.875 L 7.484375 -1.921875 C 7.484375 -1.492188 7.695312 -1.28125 8.125 -1.28125 L 11.109375 -1.28125 C 11.535156 -1.28125 11.75 -1.066406 11.75 -0.640625 C 11.75 -0.210938 11.535156 0 11.109375 0 Z M 2.59375 0 "/></g></g></g><g fill="#3a7d44" fill-opacity="1"><g transform="translate(192.952363, 196.166804)"><g><path d="M 16.859375 -14.890625 C 19.179688 -14.890625 20.96875 -15.484375 22.21875 -16.671875 C 23.46875 -17.867188 24.09375 -19.546875 24.09375 -21.703125 C 24.09375 -23.859375 23.46875 -25.53125 22.21875 -26.71875 C 20.96875 -27.914062 19.179688 -28.515625 16.859375 -28.515625 L 8.125 -28.515625 C 7.695312 -28.515625 7.484375 -28.300781 7.484375 -27.875 L 7.484375 -15.53125 C 7.484375 -15.101562 7.695312 -14.890625 8.125 -14.890625 Z M 7.484375 -1.921875 C 7.484375 -1.492188 7.695312 -1.28125 8.125 -1.28125 L 10.6875 -1.28125 C 11.113281 -1.28125 11.328125 -1.066406 11.328125 -0.640625 C 11.328125 -0.210938 11.113281 0 10.6875 0 L 2.59375 0 C 2.164062 0 1.953125 -0.210938 1.953125 -0.640625 C 1.953125 -1.066406 2.164062 -1.28125 2.59375 -1.28125 L 5.578125 -1.28125 C 6.003906 -1.28125 6.21875 -1.492188 6.21875 -1.921875 L 6.21875 -27.875 C 6.21875 -28.300781 6.003906 -28.515625 5.578125 -28.515625 L 2.59375 -28.515625 C 2.164062 -28.515625 1.953125 -28.726562 1.953125 -29.15625 C 1.953125 -29.582031 2.164062 -29.796875 2.59375 -29.796875 L 16.859375 -29.796875 C 19.609375 -29.796875 21.710938 -29.082031 23.171875 -27.65625 C 24.640625 -26.238281 25.375 -24.253906 25.375 -21.703125 C 25.375 -19.148438 24.640625 -17.164062 23.171875 -15.75 C 21.710938 -14.332031 19.609375 -13.625 16.859375 -13.625 L 16.640625 -13.625 C 16.410156 -13.625 16.242188 -13.554688 16.140625 -13.421875 C 16.046875 -13.296875 16.070312 -13.148438 16.21875 -12.984375 L 24.296875 -1.921875 C 24.671875 -1.492188 25.03125 -1.28125 25.375 -1.28125 L 28.140625 -1.28125 C 28.554688 -1.28125 28.765625 -1.066406 28.765625 -0.640625 C 28.765625 -0.210938 28.554688 0 28.140625 0 L 19.625 0 C 19.195312 0 18.984375 -0.210938 18.984375 -0.640625 C 18.984375 -1.066406 19.195312 -1.28125 19.625 -1.28125 L 22.390625 -1.28125 C 22.898438 -1.28125 22.96875 -1.492188 22.59375 -1.921875 L 14.09375 -13.625 L 8.125 -13.625 C 7.695312 -13.625 7.484375 -13.410156 7.484375 -12.984375 Z M 7.484375 -1.921875 "/></g></g></g><g fill="#3a7d44" fill-opacity="1"><g transform="translate(224.496627, 196.166804)"><g><path d="M 2.59375 0 C 2.164062 0 1.953125 -0.210938 1.953125 -0.640625 C 1.953125 -1.066406 2.164062 -1.28125 2.59375 -1.28125 L 5.578125 -1.28125 C 6.003906 -1.28125 6.21875 -1.492188 6.21875 -1.921875 L 6.21875 -27.875 C 6.21875 -28.300781 6.003906 -28.515625 5.578125 -28.515625 L 2.59375 -28.515625 C 2.164062 -28.515625 1.953125 -28.726562 1.953125 -29.15625 C 1.953125 -29.582031 2.164062 -29.796875 2.59375 -29.796875 L 11.953125 -29.796875 C 12.378906 -29.796875 12.59375 -29.582031 12.59375 -29.15625 C 12.59375 -28.726562 12.378906 -28.515625 11.953125 -28.515625 L 8.125 -28.515625 C 7.695312 -28.515625 7.484375 -28.300781 7.484375 -27.875 L 7.484375 -1.921875 C 7.484375 -1.492188 7.695312 -1.28125 8.125 -1.28125 L 21.75 -1.28125 C 22.175781 -1.28125 22.390625 -1.492188 22.390625 -1.921875 L 22.390625 -6.59375 C 22.390625 -7.019531 22.601562 -7.234375 23.03125 -7.234375 C 23.457031 -7.234375 23.671875 -7.019531 23.671875 -6.59375 L 23.671875 -0.640625 C 23.671875 -0.210938 23.457031 0 23.03125 0 Z M 2.59375 0 "/></g></g></g><g clip-path="url(#id2)"><path fill="#3a7d44" d="M 55.601562 223.871094 C 30.808594 223.871094 10.617188 203.679688 10.617188 178.859375 C 10.617188 154.035156 30.808594 133.871094 55.601562 133.871094 C 80.390625 133.871094 100.585938 154.066406 100.585938 178.859375 C 100.617188 203.679688 80.421875 223.871094 55.601562 223.871094 Z M 55.601562 134.632812 C 31.203125 134.632812 11.378906 154.460938 11.378906 178.859375 C 11.378906 203.253906 31.234375 223.109375 55.601562 223.109375 C 79.964844 223.109375 99.855469 203.253906 99.855469 178.859375 C 99.855469 154.460938 79.996094 134.632812 55.601562 134.632812 Z M 55.601562 134.632812 " fill-opacity="1" fill-rule="nonzero"/></g><g fill="#3a7d44" fill-opacity="1"><g transform="translate(42.38464, 192.411288)"><g><path d="M 22.179688 -10.691406 C 21.757812 -10.972656 21.195312 -10.832031 20.960938 -10.410156 C 14.300781 0.328125 11.957031 0.09375 11.722656 0.046875 C 11.253906 -0.09375 10.738281 -1.03125 10.597656 -3.328125 C 10.550781 -4.359375 10.316406 -7.457031 8.253906 -7.738281 C 5.863281 -8.066406 3 -3.890625 0.421875 1.5 C 2.015625 -5.628906 4.3125 -15.429688 6.003906 -22.367188 C 12.285156 -33.671875 15.476562 -42.15625 14.160156 -43.988281 C 13.878906 -44.410156 13.410156 -44.550781 12.941406 -44.457031 C 10.925781 -44.082031 7.785156 -37.234375 5.675781 -28.558594 C 5.582031 -28.230469 -2.8125 6.050781 -3.09375 10.269531 C -3.09375 10.738281 -2.8125 11.113281 -2.34375 11.207031 C -2.296875 11.207031 -2.25 11.207031 -2.203125 11.207031 C -1.828125 11.207031 -1.453125 10.972656 -1.3125 10.644531 C 2.765625 -1.078125 6.753906 -5.957031 7.925781 -5.957031 C 7.972656 -5.957031 7.972656 -5.957031 7.972656 -5.957031 C 8.160156 -5.957031 8.675781 -5.394531 8.816406 -3.234375 C 8.863281 -2.109375 9.097656 1.21875 11.253906 1.78125 C 12.191406 2.015625 14.960938 2.71875 22.460938 -9.472656 C 22.742188 -9.894531 22.601562 -10.457031 22.179688 -10.691406 Z M 12.613281 -41.875 C 12.238281 -40 10.925781 -35.96875 7.785156 -29.636719 C 9.566406 -36.390625 11.488281 -40.28125 12.613281 -41.875 Z M 12.613281 -41.875 "/></g></g></g><g fill="#3a7d44" fill-opacity="1"><g transform="translate(298.991176, 194.905534)"><g><path d="M 2.59375 -1.28125 L 5.578125 -1.28125 C 6.003906 -1.28125 6.21875 -1.492188 6.21875 -1.921875 L 6.21875 -27.890625 C 6.21875 -28.316406 6.003906 -28.53125 5.578125 -28.53125 L 2.59375 -28.53125 C 2.164062 -28.53125 1.953125 -28.742188 1.953125 -29.171875 C 1.953125 -29.597656 2.164062 -29.8125 2.59375 -29.8125 L 7.28125 -29.8125 C 7.789062 -29.8125 8.144531 -29.597656 8.34375 -29.171875 L 20.265625 -2.765625 C 20.546875 -2.203125 20.832031 -2.203125 21.125 -2.765625 L 33.046875 -29.171875 C 33.242188 -29.597656 33.597656 -29.8125 34.109375 -29.8125 L 38.78125 -29.8125 C 39.207031 -29.8125 39.421875 -29.597656 39.421875 -29.171875 C 39.421875 -28.742188 39.207031 -28.53125 38.78125 -28.53125 L 35.8125 -28.53125 C 35.382812 -28.53125 35.171875 -28.316406 35.171875 -27.890625 L 35.171875 -1.921875 C 35.171875 -1.492188 35.382812 -1.28125 35.8125 -1.28125 L 38.78125 -1.28125 C 39.207031 -1.28125 39.421875 -1.066406 39.421875 -0.640625 C 39.421875 -0.210938 39.207031 0 38.78125 0 L 30.703125 0 C 30.273438 0 30.0625 -0.210938 30.0625 -0.640625 C 30.0625 -1.066406 30.273438 -1.28125 30.703125 -1.28125 L 33.25 -1.28125 C 33.675781 -1.28125 33.890625 -1.492188 33.890625 -1.921875 L 33.890625 -26.828125 C 33.890625 -27.109375 33.832031 -27.222656 33.71875 -27.171875 C 33.664062 -27.171875 33.609375 -27.125 33.546875 -27.03125 L 21.625 -0.640625 C 21.40625 -0.210938 21.09375 0 20.6875 0 C 20.289062 0 19.976562 -0.210938 19.75 -0.640625 L 7.828125 -27.03125 C 7.722656 -27.207031 7.640625 -27.25 7.578125 -27.15625 C 7.523438 -27.070312 7.5 -26.960938 7.5 -26.828125 L 7.5 -1.921875 C 7.5 -1.492188 7.707031 -1.28125 8.125 -1.28125 L 10.6875 -1.28125 C 11.113281 -1.28125 11.328125 -1.066406 11.328125 -0.640625 C 11.328125 -0.210938 11.113281 0 10.6875 0 L 2.59375 0 C 2.164062 0 1.953125 -0.210938 1.953125 -0.640625 C 1.953125 -1.066406 2.164062 -1.28125 2.59375 -1.28125 Z M 2.59375 -1.28125 "/></g></g></g><g fill="#3a7d44" fill-opacity="1"><g transform="translate(342.621177, 194.905534)"><g><path d="M 2.59375 0 C 2.164062 0 1.953125 -0.210938 1.953125 -0.640625 C 1.953125 -1.066406 2.164062 -1.28125 2.59375 -1.28125 L 5.578125 -1.28125 C 6.003906 -1.28125 6.21875 -1.492188 6.21875 -1.921875 L 6.21875 -27.890625 C 6.21875 -28.316406 6.003906 -28.53125 5.578125 -28.53125 L 2.59375 -28.53125 C 2.164062 -28.53125 1.953125 -28.742188 1.953125 -29.171875 C 1.953125 -29.597656 2.164062 -29.8125 2.59375 -29.8125 L 14.515625 -29.8125 C 18.804688 -29.8125 22.253906 -28.390625 24.859375 -25.546875 C 27.472656 -22.710938 28.78125 -19.164062 28.78125 -14.90625 C 28.78125 -10.644531 27.472656 -7.09375 24.859375 -4.25 C 22.253906 -1.414062 18.804688 0 14.515625 0 Z M 7.5 -1.921875 C 7.5 -1.492188 7.707031 -1.28125 8.125 -1.28125 L 14.515625 -1.28125 C 18.378906 -1.28125 21.507812 -2.570312 23.90625 -5.15625 C 26.300781 -7.738281 27.5 -10.988281 27.5 -14.90625 C 27.5 -18.820312 26.300781 -22.070312 23.90625 -24.65625 C 21.507812 -27.238281 18.378906 -28.53125 14.515625 -28.53125 L 8.125 -28.53125 C 7.707031 -28.53125 7.5 -28.316406 7.5 -27.890625 Z M 7.5 -1.921875 "/></g></g></g><g fill="#3a7d44" fill-opacity="1"><g transform="translate(262.205817, 197.363942)"><g><path d="M 6.78125 -4.125 C 4.007812 -7.1875 2.625 -11.082031 2.625 -15.8125 C 2.625 -20.539062 4.007812 -24.429688 6.78125 -27.484375 C 9.550781 -30.546875 13.207031 -32.078125 17.75 -32.078125 C 22.300781 -32.078125 25.960938 -30.546875 28.734375 -27.484375 C 31.503906 -24.429688 32.890625 -20.539062 32.890625 -15.8125 C 32.890625 -11.082031 31.503906 -7.1875 28.734375 -4.125 C 25.960938 -1.070312 22.300781 0.453125 17.75 0.453125 C 13.207031 0.453125 9.550781 -1.070312 6.78125 -4.125 Z M 7.765625 -26.515625 C 5.234375 -23.710938 3.96875 -20.144531 3.96875 -15.8125 C 3.96875 -11.476562 5.234375 -7.910156 7.765625 -5.109375 C 10.296875 -2.304688 13.625 -0.90625 17.75 -0.90625 C 21.875 -0.90625 25.203125 -2.304688 27.734375 -5.109375 C 30.265625 -7.910156 31.53125 -11.476562 31.53125 -15.8125 C 31.53125 -20.144531 30.265625 -23.710938 27.734375 -26.515625 C 25.203125 -29.316406 21.875 -30.71875 17.75 -30.71875 C 13.625 -30.71875 10.296875 -29.316406 7.765625 -26.515625 Z M 7.765625 -26.515625 "/></g></g></g><g fill="#3a7d44" fill-opacity="1"><g transform="translate(250.950281, 197.363942)"><g><path d="M 6.78125 -4.125 C 4.007812 -7.1875 2.625 -11.082031 2.625 -15.8125 C 2.625 -20.539062 4.007812 -24.429688 6.78125 -27.484375 C 9.550781 -30.546875 13.207031 -32.078125 17.75 -32.078125 C 22.300781 -32.078125 25.960938 -30.546875 28.734375 -27.484375 C 31.503906 -24.429688 32.890625 -20.539062 32.890625 -15.8125 C 32.890625 -11.082031 31.503906 -7.1875 28.734375 -4.125 C 25.960938 -1.070312 22.300781 0.453125 17.75 0.453125 C 13.207031 0.453125 9.550781 -1.070312 6.78125 -4.125 Z M 7.765625 -26.515625 C 5.234375 -23.710938 3.96875 -20.144531 3.96875 -15.8125 C 3.96875 -11.476562 5.234375 -7.910156 7.765625 -5.109375 C 10.296875 -2.304688 13.625 -0.90625 17.75 -0.90625 C 21.875 -0.90625 25.203125 -2.304688 27.734375 -5.109375 C 30.265625 -7.910156 31.53125 -11.476562 31.53125 -15.8125 C 31.53125 -20.144531 30.265625 -23.710938 27.734375 -26.515625 C 25.203125 -29.316406 21.875 -30.71875 17.75 -30.71875 C 13.625 -30.71875 10.296875 -29.316406 7.765625 -26.515625 Z M 7.765625 -26.515625 "/></g></g></g></svg>