<svg xmlns="http://www.w3.org/2000/svg" xmlns:xlink="http://www.w3.org/1999/xlink" width="500" zoomAndPan="magnify" viewBox="0 0 375 374.999991" height="500" preserveAspectRatio="xMidYMid meet" version="1.0"><defs><g/><clipPath id="id1"><path d="M 4.167969 24.273438 L 336.417969 24.273438 L 336.417969 356.523438 L 4.167969 356.523438 Z M 4.167969 24.273438 " clip-rule="nonzero"/></clipPath><clipPath id="id2"><path d="M 38.667969 24.273438 L 370.917969 24.273438 L 370.917969 356.523438 L 38.667969 356.523438 Z M 38.667969 24.273438 " clip-rule="nonzero"/></clipPath></defs><rect x="-37.5" width="450" fill="#ffffff" y="-37.499999" height="449.999989" fill-opacity="1"/><rect x="-37.5" width="450" fill="#ffffff" y="-37.499999" height="449.999989" fill-opacity="1"/><rect x="-37.5" width="450" fill="#ffffff" y="-37.499999" height="449.999989" fill-opacity="1"/><rect x="-37.5" width="450" fill="#ffffff" y="-37.499999" height="449.999989" fill-opacity="1"/><g clip-path="url(#id1)"><path fill="#3a7d44" d="M 170.234375 356.523438 C 78.710938 356.523438 4.167969 281.980469 4.167969 190.34375 C 4.167969 98.707031 78.710938 24.273438 170.234375 24.273438 C 261.757812 24.273438 336.304688 98.820312 336.304688 190.34375 C 336.417969 281.980469 261.871094 356.523438 170.234375 356.523438 Z M 170.234375 27.085938 C 80.171875 27.085938 6.976562 100.28125 6.976562 190.34375 C 6.976562 280.40625 80.285156 353.714844 170.234375 353.714844 C 260.183594 353.714844 333.605469 280.40625 333.605469 190.34375 C 333.605469 100.28125 260.296875 27.085938 170.234375 27.085938 Z M 170.234375 27.085938 " fill-opacity="1" fill-rule="nonzero"/></g><g clip-path="url(#id2)"><path fill="#3a7d44" d="M 204.738281 356.523438 C 113.214844 356.523438 38.667969 281.980469 38.667969 190.34375 C 38.667969 98.707031 113.214844 24.273438 204.738281 24.273438 C 296.261719 24.273438 370.808594 98.820312 370.808594 190.34375 C 370.917969 281.980469 296.375 356.523438 204.738281 356.523438 Z M 204.738281 27.085938 C 114.675781 27.085938 41.480469 100.28125 41.480469 190.34375 C 41.480469 280.40625 114.789062 353.714844 204.738281 353.714844 C 294.6875 353.714844 368.109375 280.40625 368.109375 190.34375 C 368.109375 100.28125 294.800781 27.085938 204.738281 27.085938 Z M 204.738281 27.085938 " fill-opacity="1" fill-rule="nonzero"/></g><g fill="#3a7d44" fill-opacity="1"><g transform="translate(138.965114, 251.856605)"><g><path d="M 106.511719 -51.339844 C 104.484375 -52.691406 101.78125 -52.015625 100.65625 -49.988281 C 68.679688 1.578125 57.421875 0.449219 56.296875 0.226562 C 54.042969 -0.449219 51.566406 -4.953125 50.890625 -15.988281 C 50.664062 -20.941406 49.539062 -35.804688 39.632812 -37.15625 C 28.148438 -38.730469 14.410156 -18.691406 2.027344 7.207031 C 9.683594 -27.023438 20.714844 -74.085938 28.824219 -107.410156 C 58.996094 -161.679688 74.308594 -202.4375 68.003906 -211.21875 C 66.652344 -213.246094 64.402344 -213.921875 62.148438 -213.46875 C 52.46875 -211.667969 37.378906 -178.792969 27.246094 -137.132812 C 26.796875 -135.558594 -13.511719 29.046875 -14.863281 49.3125 C -14.863281 51.566406 -13.511719 53.367188 -11.257812 53.816406 C -11.035156 53.816406 -10.808594 53.816406 -10.582031 53.816406 C -8.78125 53.816406 -6.980469 52.691406 -6.304688 51.117188 C 13.285156 -5.179688 32.425781 -28.597656 38.054688 -28.597656 C 38.28125 -28.597656 38.28125 -28.597656 38.28125 -28.597656 C 39.179688 -28.597656 41.660156 -25.894531 42.332031 -15.539062 C 42.558594 -10.132812 43.683594 5.855469 54.042969 8.558594 C 58.546875 9.683594 71.832031 13.058594 107.859375 -45.488281 C 109.210938 -47.511719 108.535156 -50.214844 106.511719 -51.339844 Z M 60.574219 -201.085938 C 58.773438 -192.078125 52.46875 -172.714844 37.378906 -142.3125 C 45.9375 -174.738281 55.167969 -193.429688 60.574219 -201.085938 Z M 60.574219 -201.085938 "/></g></g></g></svg>